<svg id="Layer_1" data-name="Layer 1" xmlns="http://www.w3.org/2000/svg" xmlns:xlink="http://www.w3.org/1999/xlink" ><defs><style>.cls-1,.cls-5,.cls-6{fill:none;}.cls-1,.cls-3,.cls-5,.cls-6{stroke:#fff;}.cls-1,.cls-3{stroke-miterlimit:10;}.cls-2{clip-path:url(#clip-path);}.cls-3,.cls-4{fill:#fff;}.cls-3{fill-rule:evenodd;opacity:0;}.cls-5,.cls-6{stroke-linecap:round;stroke-linejoin:round;}.cls-5{stroke-width:0.5px;}</style><clipPath id="clip-path" transform="translate(-816.63 -278.5)"><polygon class="cls-1" points="827 593 946.5 593 1066 593 1066 436 1066 279 946.5 279 827 279 827 436 827 593"/></clipPath></defs><title>uci-logo-svg2-allwhite</title><g class="cls-2"><polygon class="cls-3" points="0.5 1.13 120 1.13 239.5 1.13 239.5 158.13 239.5 315.13 120 315.13 0.5 315.13 0.5 158.13 0.5 1.13"/></g><polygon class="cls-1" points="10.38 314.5 129.88 314.5 249.38 314.5 249.38 157.5 249.38 0.5 129.88 0.5 10.38 0.5 10.38 157.5 10.38 314.5"/><path class="cls-4" d="M952.87,283.82A16.44,16.44,0,1,1,941.24,279,16.38,16.38,0,0,1,952.87,283.82Z" transform="translate(-816.63 -278.5)"/><path class="cls-1" d="M957.69,295.45a16.46,16.46,0,1,1-4.82-11.63A16.39,16.39,0,0,1,957.69,295.45Z" transform="translate(-816.63 -278.5)"/><path class="cls-5" d="M941.07,333.94c20.34,2.66,32.58,12.64,39.86,24.79s9.6,26.47,10.09,37.79c-0.76,23.11-8.45,39-18.35,49.06s-22,14.1-31.59,13.53c-8.79,0-16.05-10-21-22.8s-7.57-28.46-7.08-39.78,2.08-26,6.26-38.33,11-22.32,21.81-24.25H941c-20.34,2.66-32.58,12.64-39.86,24.79s-9.6,26.47-10.09,37.79c0.76,23.11,8.45,39,18.35,49.06s22,14.1,31.59,13.53h-0.07c8.79,0,15.82-8.78,20.65-21s7.45-27.86,7.42-41.6c-0.49-11.32-2.08-26-6.26-38.33s-11-22.32-21.81-24.25" transform="translate(-816.63 -278.5)"/><line class="cls-6" x1="124.38" y1="55" x2="124.38" y2="55"/><path class="cls-5" d="M941.07,351.5" transform="translate(-816.63 -278.5)"/><polyline class="cls-5" points="139.38 73 124.77 73 110.17 73 110.17 156.5 110.17 240 124.77 240 139.38 240 139.38 156.5 139.38 73"/><line class="cls-6" x1="124.38" y1="73" x2="139.38" y2="73"/><polyline class="cls-1" points="86.02 68.63 124.61 68.75 163.21 68.88"/><polyline class="cls-1" points="180.61 90.38 124.48 90.31 68.36 90.24"/><path class="cls-4" d="M1026.89,330.88a107.43,107.43,0,1,1-168.73-3.25l7.91,7.55,7.91,7.54a85.65,85.65,0,1,0,132.6-2.35l0.08-.07,7.86-7.54,7.81-7.49Q1024.7,328,1026.89,330.88Z" transform="translate(-816.63 -278.5)"/><path class="cls-1" d="M1022.23,325.16l0.1,0.11q2.37,2.73,4.56,5.61a107.43,107.43,0,1,1-168.73-3.25" transform="translate(-816.63 -278.5)"/><path class="cls-1" d="M1006.58,340.37A85.64,85.64,0,1,1,874,342.72" transform="translate(-816.63 -278.5)"/><polyline class="cls-1" points="57.35 64.22 49.45 56.68 41.53 49.13"/><polyline class="cls-1" points="205.76 46.71 205.71 46.77 197.9 54.26 190.03 61.8"/><polyline class="cls-1" points="61.87 118.02 86.02 118.02 110.17 118.02 124.77 118.02 139.38 118.02 163.21 118.02 187.03 118.02"/><polyline class="cls-1" points="180.43 146.03 124.34 145.8 68.24 145.57"/><path class="cls-4" d="M1004.2,344.37l-0.16.13-14,13a62.58,62.58,0,1,0-4.67,83.28,64.3,64.3,0,0,0,4.91-5.52l6.59,7.1,6.39,6.9-0.05.05q-2,2.29-4.13,4.44a81.41,81.41,0,1,1,0-115C1000.85,340.52,1002.57,342.41,1004.2,344.37Z" transform="translate(-816.63 -278.5)"/><path class="cls-1" d="M1003.17,449.31q-2,2.29-4.13,4.44a81.41,81.41,0,1,1,0-115c1.81,1.8,3.53,3.69,5.16,5.65" transform="translate(-816.63 -278.5)"/><path class="cls-1" d="M990,357.5a62.59,62.59,0,0,1,.24,77.76,64.3,64.3,0,0,1-4.91,5.52A62.62,62.62,0,1,1,990,357.5Z" transform="translate(-816.63 -278.5)"/><line class="cls-1" x1="173.38" y1="79" x2="187.42" y2="66"/><polyline class="cls-1" points="187.03 171.23 186.59 170.76 180.21 163.86 173.62 156.76 173.38 156.5"/><polyline class="cls-1" points="86.02 167.42 124.61 167.29 163.21 167.17"/><rect class="cls-4" x="110.16" y="73" width="29.21" height="167"/><line class="cls-1" x1="110.16" y1="73" x2="110.16" y2="240"/><line class="cls-1" x1="139.38" y1="240" x2="110.16" y2="240"/><line class="cls-1" x1="139.38" y1="73" x2="139.38" y2="240"/><line class="cls-1" x1="110.16" y1="73" x2="139.38" y2="73"/></svg>