<svg id="Layer_1" data-name="Layer 1" xmlns="http://www.w3.org/2000/svg" xmlns:xlink="http://www.w3.org/1999/xlink" viewBox="0 0 239 315.13"><defs><style>.cls-1,.cls-4,.cls-5,.cls-6{fill:none;}.cls-2{clip-path:url(#clip-path);}.cls-3{fill:#fff;fill-rule:evenodd;opacity:0;}.cls-4,.cls-5,.cls-6{stroke:#000;}.cls-4{stroke-miterlimit:10;}.cls-5,.cls-6{stroke-linecap:round;stroke-linejoin:round;}.cls-5{stroke-width:0.5px;}</style><clipPath id="clip-path" transform="translate(-817.13 -278.5)"><polygon class="cls-1" points="827 593 946.5 593 1066 593 1066 436 1066 279 946.5 279 827 279 827 436 827 593"/></clipPath></defs><title>uci-logo-svg2</title><g class="cls-2"><polygon class="cls-3" points="0 1.13 119.5 1.13 239 1.13 239 158.13 239 315.13 119.5 315.13 0 315.13 0 158.13 0 1.13"/></g><path d="M952.87,283.82A16.44,16.44,0,1,1,941.24,279,16.38,16.38,0,0,1,952.87,283.82Z" transform="translate(-817.13 -278.5)"/><path class="cls-4" d="M957.69,295.45a16.46,16.46,0,1,1-4.82-11.63A16.39,16.39,0,0,1,957.69,295.45Z" transform="translate(-817.13 -278.5)"/><path class="cls-5" d="M941.07,333.94c20.34,2.66,32.58,12.64,39.86,24.79s9.6,26.47,10.09,37.79c-0.76,23.11-8.45,39-18.35,49.06s-22,14.1-31.59,13.53c-8.79,0-16.05-10-21-22.8s-7.57-28.46-7.08-39.78,2.08-26,6.26-38.33,11-22.32,21.81-24.25H941c-20.34,2.66-32.58,12.64-39.86,24.79s-9.6,26.47-10.09,37.79c0.76,23.11,8.45,39,18.35,49.06s22,14.1,31.59,13.53h-0.07c8.79,0,15.82-8.78,20.65-21s7.45-27.86,7.42-41.6c-0.49-11.32-2.08-26-6.26-38.33s-11-22.32-21.81-24.25" transform="translate(-817.13 -278.5)"/><line class="cls-6" x1="123.88" y1="55" x2="123.88" y2="55"/><path class="cls-5" d="M941.07,351.5" transform="translate(-817.13 -278.5)"/><polyline class="cls-5" points="138.88 73 124.27 73 109.67 73 109.67 156.5 109.67 240 124.27 240 138.88 240 138.88 156.5 138.88 73"/><line class="cls-6" x1="123.88" y1="73" x2="138.88" y2="73"/><polyline class="cls-4" points="85.52 68.63 124.11 68.75 162.71 68.88"/><polyline class="cls-4" points="180.11 90.38 123.98 90.31 67.86 90.24"/><path d="M1026.89,330.88a107.43,107.43,0,1,1-168.73-3.25l7.91,7.55,7.91,7.54a85.65,85.65,0,1,0,132.6-2.35l0.08-.07,7.86-7.54,7.81-7.49Q1024.7,328,1026.89,330.88Z" transform="translate(-817.13 -278.5)"/><path class="cls-4" d="M1022.23,325.16l0.1,0.11q2.37,2.73,4.56,5.61a107.43,107.43,0,1,1-168.73-3.25" transform="translate(-817.13 -278.5)"/><path class="cls-4" d="M1006.58,340.37A85.64,85.64,0,1,1,874,342.72" transform="translate(-817.13 -278.5)"/><polyline class="cls-4" points="56.85 64.22 48.95 56.68 41.03 49.13"/><polyline class="cls-4" points="205.26 46.71 205.21 46.77 197.4 54.26 189.53 61.8"/><polyline class="cls-4" points="61.37 118.02 85.52 118.02 109.67 118.02 124.27 118.02 138.88 118.02 162.71 118.02 186.53 118.02"/><polyline class="cls-4" points="179.93 146.03 123.84 145.8 67.74 145.57"/><path d="M1004.2,344.37l-0.16.13-14,13a62.58,62.58,0,1,0-4.67,83.28,64.3,64.3,0,0,0,4.91-5.52l6.59,7.1,6.39,6.9-0.05.05q-2,2.29-4.13,4.44a81.41,81.41,0,1,1,0-115C1000.85,340.52,1002.57,342.41,1004.2,344.37Z" transform="translate(-817.13 -278.5)"/><path class="cls-4" d="M1003.17,449.31q-2,2.29-4.13,4.44a81.41,81.41,0,1,1,0-115c1.81,1.8,3.53,3.69,5.16,5.65" transform="translate(-817.13 -278.5)"/><path class="cls-4" d="M990,357.5a62.59,62.59,0,0,1,.24,77.76,64.3,64.3,0,0,1-4.91,5.52A62.62,62.62,0,1,1,990,357.5Z" transform="translate(-817.13 -278.5)"/><line class="cls-4" x1="172.88" y1="79" x2="186.92" y2="66"/><polyline class="cls-4" points="186.53 171.23 186.09 170.76 179.71 163.86 173.12 156.76 172.88 156.5"/><polyline class="cls-4" points="85.52 167.42 124.11 167.29 162.71 167.17"/><rect x="109.66" y="73" width="29.21" height="167"/><line class="cls-4" x1="109.66" y1="73" x2="109.66" y2="240"/><line class="cls-4" x1="138.88" y1="240" x2="109.66" y2="240"/><line class="cls-4" x1="138.88" y1="73" x2="138.88" y2="240"/><line class="cls-4" x1="109.66" y1="73" x2="138.88" y2="73"/></svg>