<svg id="Layer_1" data-name="Layer 1" xmlns="http://www.w3.org/2000/svg" xmlns:xlink="http://www.w3.org/1999/xlink" viewBox="0 0 249.87 265"><defs><style>.cls-1,.cls-5,.cls-6{fill:none;}.cls-1,.cls-3,.cls-5,.cls-6{stroke:#fff;}.cls-1,.cls-3{stroke-miterlimit:10;}.cls-2{clip-path:url(#clip-path);}.cls-3,.cls-4{fill:#fff;}.cls-3{fill-rule:evenodd;opacity:0;}.cls-5,.cls-6{stroke-linecap:round;stroke-linejoin:round;}.cls-5{stroke-width:0.5px;}</style><clipPath id="clip-path" transform="translate(-811.52 -267.03)"><polygon class="cls-1" points="821.9 531 941.4 531 1060.9 531 1060.9 399.26 1060.9 267.52 941.4 267.52 821.9 267.52 821.9 399.26 821.9 531"/></clipPath></defs><title>uci-logo-allwhite-border</title><g class="cls-2"><polygon class="cls-3" points="0.5 1.02 120 1.02 239.5 1.02 239.5 132.76 239.5 264.5 120 264.5 0.5 264.5 0.5 132.76 0.5 1.02"/></g><polygon class="cls-1" points="10.38 263.98 129.88 263.98 249.38 263.98 249.38 132.24 249.38 0.5 129.88 0.5 10.38 0.5 10.38 132.24 10.38 263.98"/><path class="cls-4" d="M952.87,283.82A16.44,16.44,0,1,1,941.24,279,16.38,16.38,0,0,1,952.87,283.82Z" transform="translate(-811.52 -267.03)"/><path class="cls-1" d="M957.69,295.45a16.46,16.46,0,1,1-4.82-11.63A16.39,16.39,0,0,1,957.69,295.45Z" transform="translate(-811.52 -267.03)"/><path class="cls-5" d="M941.07,333.94c20.34,2.66,32.58,12.64,39.86,24.79s9.6,26.47,10.09,37.79c-0.76,23.11-8.45,39-18.35,49.06s-22,14.1-31.59,13.53c-8.79,0-16.05-10-21-22.8s-7.57-28.46-7.08-39.78,2.08-26,6.26-38.33,11-22.32,21.81-24.25H941c-20.34,2.66-32.58,12.64-39.86,24.79s-9.6,26.47-10.09,37.79c0.76,23.11,8.45,39,18.35,49.06s22,14.1,31.59,13.53h-0.07c8.79,0,15.82-8.78,20.65-21s7.45-27.86,7.42-41.6c-0.49-11.32-2.08-26-6.26-38.33s-11-22.32-21.81-24.25" transform="translate(-811.52 -267.03)"/><line class="cls-6" x1="129.48" y1="66.47" x2="129.48" y2="66.47"/><path class="cls-5" d="M941.07,351.5" transform="translate(-811.52 -267.03)"/><polyline class="cls-5" points="144.48 84.47 129.88 84.47 115.27 84.47 115.27 167.97 115.27 251.47 129.88 251.47 144.48 251.47 144.48 167.97 144.48 84.47"/><line class="cls-6" x1="129.48" y1="84.47" x2="144.48" y2="84.47"/><polyline class="cls-1" points="91.12 80.1 129.71 80.23 168.31 80.36"/><polyline class="cls-1" points="185.71 101.86 129.59 101.79 73.46 101.72"/><path class="cls-4" d="M1026.89,330.88a107.43,107.43,0,1,1-168.73-3.25l7.91,7.55,7.91,7.54a85.65,85.65,0,1,0,132.6-2.35l0.08-.07,7.86-7.54,7.81-7.49Q1024.7,328,1026.89,330.88Z" transform="translate(-811.52 -267.03)"/><path class="cls-1" d="M1022.23,325.16l0.1,0.11q2.37,2.73,4.56,5.61a107.43,107.43,0,1,1-168.73-3.25" transform="translate(-811.52 -267.03)"/><path class="cls-1" d="M1006.58,340.37A85.64,85.64,0,1,1,874,342.72" transform="translate(-811.52 -267.03)"/><polyline class="cls-1" points="62.46 75.69 54.55 68.16 46.64 60.6"/><polyline class="cls-1" points="210.87 58.19 210.81 58.24 203 65.73 195.14 73.28"/><polyline class="cls-1" points="66.97 129.5 91.12 129.5 115.27 129.5 129.88 129.5 144.48 129.5 168.31 129.5 192.14 129.5"/><polyline class="cls-1" points="185.53 157.5 129.44 157.27 73.34 157.04"/><path class="cls-4" d="M1004.2,344.37l-0.16.13-14,13a62.58,62.58,0,1,0-4.67,83.28,64.3,64.3,0,0,0,4.91-5.52l6.59,7.1,6.39,6.9-0.05.05q-2,2.29-4.13,4.44a81.41,81.41,0,1,1,0-115C1000.85,340.52,1002.57,342.41,1004.2,344.37Z" transform="translate(-811.52 -267.03)"/><path class="cls-1" d="M1003.17,449.31q-2,2.29-4.13,4.44a81.41,81.41,0,1,1,0-115c1.81,1.8,3.53,3.69,5.16,5.65" transform="translate(-811.52 -267.03)"/><path class="cls-1" d="M990,357.5a62.59,62.59,0,0,1,.24,77.76,64.3,64.3,0,0,1-4.91,5.52A62.62,62.62,0,1,1,990,357.5Z" transform="translate(-811.52 -267.03)"/><line class="cls-1" x1="178.48" y1="90.47" x2="192.52" y2="77.47"/><polyline class="cls-1" points="192.14 182.71 191.7 182.24 185.31 175.34 178.72 168.24 178.48 167.97"/><polyline class="cls-1" points="91.12 178.89 129.71 178.77 168.31 178.64"/><rect class="cls-4" x="115.27" y="84.47" width="29.21" height="167"/><line class="cls-1" x1="115.27" y1="84.47" x2="115.27" y2="251.47"/><line class="cls-1" x1="144.48" y1="251.47" x2="115.27" y2="251.47"/><line class="cls-1" x1="144.48" y1="84.47" x2="144.48" y2="251.47"/><line class="cls-1" x1="115.27" y1="84.47" x2="144.48" y2="84.47"/></svg>