<svg id="Layer_1" data-name="Layer 1" xmlns="http://www.w3.org/2000/svg" viewBox="0 0 215.86 240.5"><defs><style>.cls-1,.cls-2,.cls-3{fill:none;stroke:#000;}.cls-1{stroke-miterlimit:10;}.cls-2,.cls-3{stroke-linecap:round;stroke-linejoin:round;}.cls-2{stroke-width:0.5px;}</style></defs><title>uci-logo-allblack2</title><path d="M952.87,283.82A16.44,16.44,0,1,1,941.24,279,16.38,16.38,0,0,1,952.87,283.82Z" transform="translate(-833.31 -278.5)"/><path class="cls-1" d="M957.69,295.45a16.46,16.46,0,1,1-4.82-11.63A16.39,16.39,0,0,1,957.69,295.45Z" transform="translate(-833.31 -278.5)"/><path class="cls-2" d="M941.07,333.94c20.34,2.66,32.58,12.64,39.86,24.79s9.6,26.47,10.09,37.79c-0.76,23.11-8.45,39-18.35,49.06s-22,14.1-31.59,13.53c-8.79,0-16.05-10-21-22.8s-7.57-28.46-7.08-39.78,2.08-26,6.26-38.33,11-22.32,21.81-24.25H941c-20.34,2.66-32.58,12.64-39.86,24.79s-9.6,26.47-10.09,37.79c0.76,23.11,8.45,39,18.35,49.06s22,14.1,31.59,13.53h-0.07c8.79,0,15.82-8.78,20.65-21s7.45-27.86,7.42-41.6c-0.49-11.32-2.08-26-6.26-38.33s-11-22.32-21.81-24.25" transform="translate(-833.31 -278.5)"/><line class="cls-3" x1="107.69" y1="55" x2="107.69" y2="55"/><path class="cls-2" d="M941.07,351.5" transform="translate(-833.31 -278.5)"/><polyline class="cls-2" points="122.69 73 108.09 73 93.48 73 93.48 156.5 93.48 240 108.09 240 122.69 240 122.69 156.5 122.69 73"/><line class="cls-3" x1="107.69" y1="73" x2="122.69" y2="73"/><polyline class="cls-1" points="69.33 68.63 107.93 68.75 146.52 68.88"/><polyline class="cls-1" points="163.93 90.38 107.8 90.31 51.67 90.24"/><path d="M1026.89,330.88a107.43,107.43,0,1,1-168.73-3.25l7.91,7.55,7.91,7.54a85.65,85.65,0,1,0,132.6-2.35l0.08-.07,7.86-7.54,7.81-7.49Q1024.7,328,1026.89,330.88Z" transform="translate(-833.31 -278.5)"/><path class="cls-1" d="M1022.23,325.16l0.1,0.11q2.37,2.73,4.56,5.61a107.43,107.43,0,1,1-168.73-3.25" transform="translate(-833.31 -278.5)"/><path class="cls-1" d="M1006.58,340.37A85.64,85.64,0,1,1,874,342.72" transform="translate(-833.31 -278.5)"/><polyline class="cls-1" points="40.67 64.22 32.76 56.68 24.85 49.13"/><polyline class="cls-1" points="189.08 46.71 189.02 46.77 181.21 54.26 173.35 61.8"/><polyline class="cls-1" points="45.18 118.02 69.33 118.02 93.48 118.02 108.09 118.02 122.69 118.02 146.52 118.02 170.35 118.02"/><polyline class="cls-1" points="163.75 146.03 107.65 145.8 51.55 145.57"/><path d="M1004.2,344.37l-0.16.13-14,13a62.58,62.58,0,1,0-4.67,83.28,64.3,64.3,0,0,0,4.91-5.52l6.59,7.1,6.39,6.9-0.05.05q-2,2.29-4.13,4.44a81.41,81.41,0,1,1,0-115C1000.85,340.52,1002.57,342.41,1004.2,344.37Z" transform="translate(-833.31 -278.5)"/><path class="cls-1" d="M1003.17,449.31q-2,2.29-4.13,4.44a81.41,81.41,0,1,1,0-115c1.81,1.8,3.53,3.69,5.16,5.65" transform="translate(-833.31 -278.5)"/><path class="cls-1" d="M990,357.5a62.59,62.59,0,0,1,.24,77.76,64.3,64.3,0,0,1-4.91,5.52A62.62,62.62,0,1,1,990,357.5Z" transform="translate(-833.31 -278.5)"/><line class="cls-1" x1="156.69" y1="79" x2="170.73" y2="66"/><polyline class="cls-1" points="170.35 171.23 169.91 170.76 163.52 163.86 156.93 156.76 156.69 156.5"/><polyline class="cls-1" points="69.33 167.42 107.93 167.29 146.52 167.17"/><rect x="93.48" y="73" width="29.21" height="167"/><line class="cls-1" x1="93.48" y1="73" x2="93.48" y2="240"/><line class="cls-1" x1="122.69" y1="240" x2="93.48" y2="240"/><line class="cls-1" x1="122.69" y1="73" x2="122.69" y2="240"/><line class="cls-1" x1="93.48" y1="73" x2="122.69" y2="73"/></svg>