<svg id="Layer_1" data-name="Layer 1" xmlns="http://www.w3.org/2000/svg" xmlns:xlink="http://www.w3.org/1999/xlink" viewBox="0 0 239 315.13"><defs><style>.cls-1,.cls-4{fill:none;}.cls-2{clip-path:url(#clip-path);}.cls-3,.cls-5{fill:#fff;}.cls-3{fill-rule:evenodd;opacity:0;}.cls-4{stroke:#000;stroke-miterlimit:10;}</style><clipPath id="clip-path" transform="translate(-817.13 -278.5)"><polygon class="cls-1" points="827 593 946.5 593 1066 593 1066 436 1066 279 946.5 279 827 279 827 436 827 593"/></clipPath></defs><title>uci-logo-svg</title><g class="cls-2"><polygon class="cls-3" points="0 1.13 119.5 1.13 239 1.13 239 158.13 239 315.13 119.5 315.13 0 315.13 0 158.13 0 1.13"/></g><path d="M952.87,283.82A16.44,16.44,0,1,1,941.24,279,16.38,16.38,0,0,1,952.87,283.82Z" transform="translate(-817.13 -278.5)"/><path class="cls-4" d="M957.69,295.45a16.46,16.46,0,1,1-4.82-11.63A16.39,16.39,0,0,1,957.69,295.45Z" transform="translate(-817.13 -278.5)"/><path class="cls-5" d="M980.93,358.73c7.28,12.15,9.6,26.47,10.09,37.79-0.76,23.12-8.45,39.05-18.35,49.06a47.22,47.22,0,0,1-16.67,11v-7.55a57.88,57.88,0,0,0,5.59-10.93c4.83-12.21,7.46-27.86,7.43-41.6-0.49-11.32-2.08-26-6.27-38.33a63,63,0,0,0-3.65-8.72c-4.16-8.07-10-14-18.09-15.52h0.06C961.41,336.59,973.65,346.58,980.93,358.73Z" transform="translate(-817.13 -278.5)"/><path d="M956,456.6v61.9H926.79V456.86a35.88,35.88,0,0,0,14.15,2.25h0.13A36.28,36.28,0,0,0,956,456.6Z" transform="translate(-817.13 -278.5)"/><path class="cls-5" d="M956,449.05v7.55a36.28,36.28,0,0,1-14.93,2.51C946.86,459.05,951.87,455.19,956,449.05Z" transform="translate(-817.13 -278.5)"/><path class="cls-5" d="M956,435v14.05c-4.13,6.14-9.14,10-14.93,10.06h-0.13c-5.35-.06-10.13-3.82-14.15-9.66V351.5H956V435Z" transform="translate(-817.13 -278.5)"/><path class="cls-5" d="M941,333.94h0Z" transform="translate(-817.13 -278.5)"/><path class="cls-5" d="M941,334h0c-8.45,1.54-14.42,7.95-18.62,16.54a64.82,64.82,0,0,0-3.13,7.7c-4.18,12.33-5.77,27-6.26,38.33s2.13,27,7.08,39.79a62.62,62.62,0,0,0,6.71,13.14v7.41a47,47,0,0,1-17.37-11.28c-9.9-10-17.59-25.94-18.35-49.06,0.5-11.32,2.81-25.64,10.09-37.79S920.66,336.61,941,334Z" transform="translate(-817.13 -278.5)"/><path class="cls-5" d="M940.94,459.11a35.88,35.88,0,0,1-14.15-2.25v-7.41C930.81,455.29,935.59,459.05,940.94,459.11Z" transform="translate(-817.13 -278.5)"/><path class="cls-4" d="M956,449.05a57.88,57.88,0,0,0,5.59-10.93c4.83-12.21,7.46-27.86,7.43-41.6-0.49-11.32-2.08-26-6.27-38.33a63,63,0,0,0-3.65-8.72c-4.16-8.07-10-14-18.09-15.52h-0.07" transform="translate(-817.13 -278.5)"/><path class="cls-4" d="M941,333.94h0c-20.31,2.66-32.54,12.64-39.81,24.78s-9.59,26.47-10.09,37.79c0.76,23.12,8.45,39.05,18.35,49.06a47,47,0,0,0,17.37,11.28" transform="translate(-817.13 -278.5)"/><path class="cls-4" d="M926.79,449.45a62.62,62.62,0,0,1-6.71-13.14c-5-12.82-7.57-28.46-7.08-39.79s2.08-26,6.26-38.33a64.82,64.82,0,0,1,3.13-7.7c4.2-8.59,10.17-15,18.62-16.54h0" transform="translate(-817.13 -278.5)"/><path class="cls-4" d="M941.07,333.94c20.34,2.65,32.58,12.64,39.86,24.79s9.6,26.47,10.09,37.79c-0.76,23.12-8.45,39.05-18.35,49.06a47.22,47.22,0,0,1-16.67,11" transform="translate(-817.13 -278.5)"/><polyline class="cls-4" points="123.89 55.44 123.92 55.44 123.94 55.44"/><polyline class="cls-4" points="123.94 73 109.67 73 109.67 156.5 109.67 170.95 109.67 178.36 109.67 240 124.28 240 138.88 240 138.88 178.1 138.88 170.55 138.88 156.5 138.88 73"/><line class="cls-4" x1="123.95" y1="73" x2="138.88" y2="73"/><polyline class="cls-4" points="85.52 68.63 124.11 68.75 162.71 68.88"/><polyline class="cls-4" points="180.11 90.38 123.98 90.31 67.86 90.24"/><path d="M1026.89,330.88a107.43,107.43,0,1,1-168.73-3.25l7.91,7.55,7.91,7.54a85.65,85.65,0,1,0,132.6-2.35l0.08-.07,7.86-7.54,7.81-7.49Q1024.7,328,1026.89,330.88Z" transform="translate(-817.13 -278.5)"/><path class="cls-4" d="M1022.23,325.16l0.1,0.11q2.37,2.73,4.56,5.61a107.43,107.43,0,1,1-168.73-3.25" transform="translate(-817.13 -278.5)"/><path class="cls-4" d="M1006.58,340.37A85.64,85.64,0,1,1,874,342.72" transform="translate(-817.13 -278.5)"/><polyline class="cls-4" points="56.85 64.22 48.95 56.68 41.03 49.13"/><polyline class="cls-4" points="205.26 46.71 205.21 46.77 197.4 54.26 189.53 61.8"/><polyline class="cls-4" points="61.37 118.02 85.52 118.02 109.67 118.02 124.27 118.02 138.88 118.02 162.71 118.02 186.53 118.02"/><polyline class="cls-4" points="179.93 146.03 123.84 145.8 67.74 145.57"/><path d="M1004.2,344.37l-0.16.13-14,13a62.58,62.58,0,1,0-4.67,83.28,64.3,64.3,0,0,0,4.91-5.52l6.59,7.1,6.39,6.9-0.05.05q-2,2.29-4.13,4.44a81.41,81.41,0,1,1,0-115C1000.85,340.52,1002.57,342.41,1004.2,344.37Z" transform="translate(-817.13 -278.5)"/><path class="cls-4" d="M1003.17,449.31q-2,2.29-4.13,4.44a81.41,81.41,0,1,1,0-115c1.81,1.8,3.53,3.69,5.16,5.65" transform="translate(-817.13 -278.5)"/><path class="cls-4" d="M990,357.5a62.59,62.59,0,0,1,.24,77.76,64.3,64.3,0,0,1-4.91,5.52A62.62,62.62,0,1,1,990,357.5Z" transform="translate(-817.13 -278.5)"/><line class="cls-4" x1="172.88" y1="79" x2="186.92" y2="66"/><polyline class="cls-4" points="186.53 171.23 186.09 170.76 179.71 163.86 173.12 156.76 172.88 156.5"/><polyline class="cls-4" points="85.52 167.42 124.11 167.29 162.71 167.17"/><rect x="109.66" y="73" width="29.21" height="167"/><line class="cls-4" x1="109.66" y1="73" x2="109.66" y2="240"/><line class="cls-4" x1="138.88" y1="240" x2="109.66" y2="240"/><line class="cls-4" x1="138.88" y1="73" x2="138.88" y2="240"/><line class="cls-4" x1="109.66" y1="73" x2="138.88" y2="73"/></svg>