<svg id="Layer_1" data-name="Layer 1" xmlns="http://www.w3.org/2000/svg" xmlns:xlink="http://www.w3.org/1999/xlink" viewBox="0 0 239 263.47"><defs><style>.cls-1,.cls-5,.cls-6,.cls-7{fill:none;}.cls-2{clip-path:url(#clip-path);}.cls-3,.cls-4{fill:#fff;}.cls-3{fill-rule:evenodd;opacity:0;}.cls-5,.cls-6,.cls-7{stroke:#fff;}.cls-5{stroke-miterlimit:10;}.cls-6,.cls-7{stroke-linecap:round;stroke-linejoin:round;}.cls-6{stroke-width:0.5px;}</style><clipPath id="clip-path" transform="translate(-812.02 -268.05)"><polygon class="cls-1" points="821.9 531 941.4 531 1060.9 531 1060.9 399.26 1060.9 267.52 941.4 267.52 821.9 267.52 821.9 399.26 821.9 531"/></clipPath></defs><title>uci-logo-svg3-allwhite</title><g class="cls-2"><polygon class="cls-3" points="0 0 119.5 0 239 0 239 131.74 239 263.48 119.5 263.48 0 263.48 0 131.74 0 0"/></g><path class="cls-4" d="M952.87,283.82A16.44,16.44,0,1,1,941.24,279,16.38,16.38,0,0,1,952.87,283.82Z" transform="translate(-812.02 -268.05)"/><path class="cls-5" d="M957.69,295.45a16.46,16.46,0,1,1-4.82-11.63A16.39,16.39,0,0,1,957.69,295.45Z" transform="translate(-812.02 -268.05)"/><path class="cls-6" d="M941.07,333.94c20.34,2.66,32.58,12.64,39.86,24.79s9.6,26.47,10.09,37.79c-0.76,23.11-8.45,39-18.35,49.06s-22,14.1-31.59,13.53c-8.79,0-16.05-10-21-22.8s-7.57-28.46-7.08-39.78,2.08-26,6.26-38.33,11-22.32,21.81-24.25H941c-20.34,2.66-32.58,12.64-39.86,24.79s-9.6,26.47-10.09,37.79c0.76,23.11,8.45,39,18.35,49.06s22,14.1,31.59,13.53h-0.07c8.79,0,15.82-8.78,20.65-21s7.45-27.86,7.42-41.6c-0.49-11.32-2.08-26-6.26-38.33s-11-22.32-21.81-24.25" transform="translate(-812.02 -268.05)"/><line class="cls-7" x1="128.98" y1="65.45" x2="128.98" y2="65.45"/><path class="cls-6" d="M941.07,351.5" transform="translate(-812.02 -268.05)"/><polyline class="cls-6" points="143.98 83.45 129.38 83.45 114.77 83.45 114.77 166.95 114.77 250.45 129.38 250.45 143.98 250.45 143.98 166.95 143.98 83.45"/><line class="cls-7" x1="128.98" y1="83.45" x2="143.98" y2="83.45"/><polyline class="cls-5" points="90.62 79.08 129.21 79.21 167.81 79.33"/><polyline class="cls-5" points="185.21 100.83 129.09 100.76 72.96 100.69"/><path class="cls-4" d="M1026.89,330.88a107.43,107.43,0,1,1-168.73-3.25l7.91,7.55,7.91,7.54a85.65,85.65,0,1,0,132.6-2.35l0.08-.07,7.86-7.54,7.81-7.49Q1024.7,328,1026.89,330.88Z" transform="translate(-812.02 -268.05)"/><path class="cls-5" d="M1022.23,325.16l0.1,0.11q2.37,2.73,4.56,5.61a107.43,107.43,0,1,1-168.73-3.25" transform="translate(-812.02 -268.05)"/><path class="cls-5" d="M1006.58,340.37A85.64,85.64,0,1,1,874,342.72" transform="translate(-812.02 -268.05)"/><polyline class="cls-5" points="61.96 74.67 54.05 67.13 46.14 59.58"/><polyline class="cls-5" points="210.37 57.16 210.31 57.22 202.5 64.71 194.64 72.25"/><polyline class="cls-5" points="66.47 128.47 90.62 128.47 114.77 128.47 129.38 128.47 143.98 128.47 167.81 128.47 191.64 128.47"/><polyline class="cls-5" points="185.03 156.48 128.94 156.25 72.84 156.02"/><path class="cls-4" d="M1004.2,344.37l-0.16.13-14,13a62.58,62.58,0,1,0-4.67,83.28,64.3,64.3,0,0,0,4.91-5.52l6.59,7.1,6.39,6.9-0.05.05q-2,2.29-4.13,4.44a81.41,81.41,0,1,1,0-115C1000.85,340.52,1002.57,342.41,1004.2,344.37Z" transform="translate(-812.02 -268.05)"/><path class="cls-5" d="M1003.17,449.31q-2,2.29-4.13,4.44a81.41,81.41,0,1,1,0-115c1.81,1.8,3.53,3.69,5.16,5.65" transform="translate(-812.02 -268.05)"/><path class="cls-5" d="M990,357.5a62.59,62.59,0,0,1,.24,77.76,64.3,64.3,0,0,1-4.91,5.52A62.62,62.62,0,1,1,990,357.5Z" transform="translate(-812.02 -268.05)"/><line class="cls-5" x1="177.98" y1="89.45" x2="192.02" y2="76.45"/><polyline class="cls-5" points="191.64 181.68 191.2 181.21 184.81 174.31 178.22 167.21 177.98 166.95"/><polyline class="cls-5" points="90.62 177.87 129.21 177.74 167.81 177.62"/><rect class="cls-4" x="114.77" y="83.45" width="29.21" height="167"/><line class="cls-5" x1="114.77" y1="83.45" x2="114.77" y2="250.45"/><line class="cls-5" x1="143.98" y1="250.45" x2="114.77" y2="250.45"/><line class="cls-5" x1="143.98" y1="83.45" x2="143.98" y2="250.45"/><line class="cls-5" x1="114.77" y1="83.45" x2="143.98" y2="83.45"/></svg>